<svg width="23" height="21" viewBox="0 0 23 21" fill="none" xmlns="http://www.w3.org/2000/svg">
<path fill-rule="evenodd" clip-rule="evenodd" d="M22.5192 10.1822C22.5192 10.5555 22.3709 10.9134 22.107 11.1773C21.8431 11.4413 21.4851 11.5895 21.1119 11.5895L4.80698 11.5895L10.8499 17.6296C10.9807 17.7605 11.0845 17.9158 11.1553 18.0868C11.2262 18.2577 11.2626 18.4409 11.2626 18.626C11.2626 18.811 11.2262 18.9943 11.1553 19.1652C11.0845 19.3362 10.9807 19.4915 10.8499 19.6223C10.7191 19.7532 10.5637 19.857 10.3928 19.9278C10.2218 19.9986 10.0386 20.0351 9.85353 20.0351C9.66849 20.0351 9.48526 19.9986 9.3143 19.9278C9.14335 19.857 8.98801 19.7532 8.85717 19.6223L0.413415 11.1786C0.28236 11.0479 0.178382 10.8926 0.107437 10.7216C0.0364909 10.5506 -2.9049e-05 10.3673 -2.90409e-05 10.1822C-2.90328e-05 9.99712 0.036491 9.81383 0.107437 9.64286C0.178382 9.47189 0.28236 9.31659 0.413416 9.18587L8.85717 0.742114C8.98802 0.611269 9.14335 0.507478 9.31431 0.436665C9.48526 0.365853 9.66849 0.329406 9.85353 0.329406C10.0386 0.329406 10.2218 0.365853 10.3928 0.436665C10.5637 0.507478 10.7191 0.611269 10.8499 0.742114C11.1141 1.00637 11.2626 1.36477 11.2626 1.73848C11.2626 1.92352 11.2262 2.10675 11.1553 2.27771C11.0845 2.44866 10.9807 2.604 10.8499 2.73484L4.80698 8.77494L21.1119 8.77494C21.4851 8.77494 21.8431 8.92321 22.107 9.18713C22.3709 9.45104 22.5192 9.80899 22.5192 10.1822Z" fill="#1A1A1A" fill-opacity="0.67"/>
</svg>
