<svg width="20" height="14" viewBox="0 0 20 14" fill="none" xmlns="http://www.w3.org/2000/svg">
<path d="M0.75 13.5C0.551088 13.5 0.360322 13.421 0.21967 13.2803C0.0790176 13.1397 0 12.9489 0 12.75C0 12.5511 0.0790176 12.3603 0.21967 12.2197C0.360322 12.079 0.551088 12 0.75 12H14.25C14.4489 12 14.6397 12.079 14.7803 12.2197C14.921 12.3603 15 12.5511 15 12.75C15 12.9489 14.921 13.1397 14.7803 13.2803C14.6397 13.421 14.4489 13.5 14.25 13.5H0.75ZM0.75 7.5C0.551088 7.5 0.360322 7.42098 0.21967 7.28033C0.0790176 7.13968 0 6.94891 0 6.75C0 6.55109 0.0790176 6.36032 0.21967 6.21967C0.360322 6.07902 0.551088 6 0.75 6H19.25C19.4489 6 19.6397 6.07902 19.7803 6.21967C19.921 6.36032 20 6.55109 20 6.75C20 6.94891 19.921 7.13968 19.7803 7.28033C19.6397 7.42098 19.4489 7.5 19.25 7.5H0.75ZM0.75 1.5C0.551088 1.5 0.360322 1.42098 0.21967 1.28033C0.0790176 1.13968 0 0.948912 0 0.75C0 0.551087 0.0790176 0.360322 0.21967 0.21967C0.360322 0.0790176 0.551088 0 0.75 0L11.25 0C11.4489 0 11.6397 0.0790176 11.7803 0.21967C11.921 0.360322 12 0.551087 12 0.75C12 0.948912 11.921 1.13968 11.7803 1.28033C11.6397 1.42098 11.4489 1.5 11.25 1.5H0.75Z" fill="#454F63"/>
</svg>
